# xmcd
# 
# Track frame offsets:
#     150
#     17487
#     33855
#     53180
#     72320
#     91997
#     110692
#     135337
#     158290
#     177372
#     219547
#     234745
#     289152
# 
# Disc length: 4112
# 
# Revision: 0
# Processed by: cddbd v1.5.2PL0 Copyright (c) Steve Scherf et al.
# Submitted via: fre:ac v1.0.17
# 
DISCID=ab100e0d
DTITLE=Various Artist - Live At Liberty Lunch
DYEAR=1990
DGENRE=Rock
TTITLE0=Joe Ely - Me And Billy The Kid
TTITLE1=Joe Ely - Are You Listenin' Lucky?
TTITLE2=Joe Ely - Grandfather Blues
TTITLE3=Joe Ely - B.B.Q. and Foam
TTITLE4=Joe Ely - Row Of Dominoes
TTITLE5=Joe Ely - Dallas
TTITLE6=Joe Ely - Where Is My Love?
TTITLE7=Joe Ely - She Gotta Get The Gettin'
TTITLE8=Joe Ely - Drivin' To The Poorhouse In A Limousine
TTITLE9=Joe Ely - Cool Rockin' Loretta
TTITLE10=Joe Ely - Musta Notta Gotta Lotta
TTITLE11=Joe Ely - Letter To L.A.
TTITLE12=Joe Ely and Butch Hancock - If You Were A Bluebird
EXTD=
EXTT0=
EXTT1=
EXTT2=
EXTT3=
EXTT4=
EXTT5=
EXTT6=
EXTT7=
EXTT8=
EXTT9=
EXTT10=
EXTT11=
EXTT12=
PLAYORDER=
